<?xml version="1.0" encoding="utf-8"?>
<!DOCTYPE svg PUBLIC "-//W3C//DTD SVG 1.0//EN" "http://www.w3.org/TR/2001/REC-SVG-20010904/DTD/svg10.dtd">
<svg version="1.0" xmlns="http://www.w3.org/2000/svg" width="507px" height="492px" viewBox="0 0 507 492" preserveAspectRatio="xMidYMid meet">
 <g fill="none" stroke="#000000" stroke-width="1">
  <path d="M130 382.5 l0 -11.6 8 0.2 c9.8 0.3 10.7 1.9 1 1.9 l-7 0 0 4 0 4 4.5 0 c2.5 0 4.5 0.5 4.5 1 0 0.6 -2 1 -4.6 1 l-4.5 0 0.3 4.8 0.3 4.7 6.8 -0.1 c3.7 -0.1 6.7 0.2 6.7 0.7 0 0.5 -3.6 0.9 -8 0.9 l-8 0 0 -11.5z"/>
  <path d="M151.8 392.9 c-1 -0.5 -1.8 -1.5 -1.8 -2 0 -0.6 1 -0.3 2.2 0.5 4.6 3.3 11.4 1.2 10.6 -3.1 -0.2 -1.3 -1.8 -2.1 -5.6 -2.8 -7.2 -1.4 -9.1 -4.6 -5.2 -8.5 2.4 -2.4 7.8 -2.6 10.6 -0.4 1.9 1.5 1.9 1.6 -0.1 0.8 -6.6 -2.3 -10.5 -1.2 -10.5 3.1 0 2.6 1.7 3.5 6.3 3.5 5.5 0 7.9 3.6 5.2 7.6 -1.2 1.9 -2.4 2.4 -5.8 2.4 -2.3 0 -5 -0.5 -5.9 -1.1z"/>
  <path d="M173.8 385.5 l0.3 -8.5 -3.5 0 c-2 0 -3.6 -0.4 -3.6 -1 0 -0.6 3.2 -1 7.5 -1 4.3 0 7.5 0.4 7.5 1 0 0.6 -1.6 1 -3.6 1 l-3.5 0 0.3 8.5 c0.2 5.2 -0.1 8.5 -0.7 8.5 -0.6 0 -0.9 -3.3 -0.7 -8.5z"/>
  <path d="M187.2 392.8 c-1.2 -1.5 -2.1 -17.8 -1 -17.8 0.5 0 0.8 3.5 0.8 7.8 0 4.7 0.5 8.3 1.2 9 1.6 1.6 7.3 1.5 8.6 -0.1 0.6 -0.7 1.3 -4.9 1.5 -9.2 l0.3 -8 0.2 8.6 c0.1 5.5 -0.2 8.9 -1 9.7 -1.6 1.6 -9.3 1.5 -10.6 0z"/>
  <path d="M204.8 384.5 l0.3 -9.5 3.3 0 c9.7 0 14.3 6.8 10.1 14.9 -1.6 3.1 -3.9 4.1 -10 4.1 l-4 0 0.3 -9.5z m11.8 6.4 c2.2 -1.8 2.6 -6.5 1 -10.3 -1.4 -3.5 -1.7 -3.6 -6.5 -3.6 l-5.1 0 0 7.3 c0 4.1 0.3 7.7 0.8 8.1 0.9 1 8.2 -0.2 9.8 -1.5z"/>
  <path d="M224.5 384.5 c0 -5.2 0.3 -9.5 0.8 -9.5 0.4 0 0.7 4.3 0.7 9.5 0 5.2 -0.3 9.5 -0.7 9.5 -0.5 0 -0.8 -4.3 -0.8 -9.5z"/>
  <path d="M233.9 391.4 c-3.6 -3.8 -3.4 -10.7 0.4 -14 5.4 -4.6 12.8 -2.5 14.6 4.2 1.1 3.9 0.1 7.6 -2.6 10.6 -2.6 2.9 -9.4 2.4 -12.4 -0.8z m12 -1 c6.3 -8 -3.3 -19.1 -10.6 -12.2 -3.1 2.9 -3.2 9.2 -0.1 12.5 3 3.3 8 3.1 10.7 -0.3z"/>
  <path d="M261.3 393.3 c-0.7 -0.2 -1.3 -0.9 -1.3 -1.4 0 -0.6 0.8 -0.6 1.9 0.1 3.1 1.6 6.9 1.2 8.1 -0.9 0.5 -1.1 1 -6 1 -11 0 -5 0.3 -9.1 0.8 -9.1 0.4 0 0.5 4.7 0.2 10.5 -0.4 7.9 -0.9 10.8 -2 11.5 -1.6 1 -6.6 1.2 -8.7 0.3z"/>
  <path d="M279.6 392.4 c-1.2 -1.1 -1.6 -3.6 -1.6 -9.5 0 -4.3 0.4 -7.9 0.8 -7.9 0.4 0 0.6 2.8 0.4 6.3 -0.2 3.4 0.1 7.4 0.7 9 0.9 2.3 1.6 2.7 5 2.7 2.1 0 4.3 -0.6 4.9 -1.3 0.6 -0.7 1.3 -4.9 1.5 -9.2 l0.3 -8 0.2 8.2 c0.2 9.6 -0.8 11.3 -6.8 11.3 -2.2 0 -4.5 -0.7 -5.4 -1.6z"/>
  <path d="M297.5 384.5 l0 -9.5 4.2 0 c6.6 0 9.3 1.4 9.3 4.9 0 1.9 -0.8 3.5 -2.1 4.5 l-2.2 1.5 2.2 3.7 c1.2 2 1.9 3.9 1.6 4.2 -0.3 0.3 -0.6 0.3 -0.7 0.1 -0.2 -0.2 -1.3 -2.2 -2.4 -4.4 -1.7 -3.2 -2.8 -4.1 -5.3 -4.3 -3.1 -0.3 -3.1 -0.3 -3.1 4.2 0 2.5 -0.3 4.6 -0.7 4.6 -0.5 0 -0.8 -4.3 -0.8 -9.5z m12 -4 c0 -2.9 -0.2 -3 -5.2 -3.3 l-5.3 -0.3 0 3.6 0 3.6 5.3 -0.3 c5 -0.3 5.2 -0.4 5.2 -3.3z"/>
  <path d="M316 384.5 c0 -5.2 0.3 -9.5 0.8 -9.5 0.4 0 0.7 4.3 0.7 9.5 0 5.2 -0.3 9.5 -0.7 9.5 -0.5 0 -0.8 -4.3 -0.8 -9.5z"/>
  <path d="M323 384.4 l0 -9.6 5.7 0.4 c7 0.6 9.3 2.9 9.3 9.5 0 6.3 -3.2 9.3 -10 9.3 l-5 0 0 -9.6z m12.2 5.6 c2.2 -2.7 2.3 -7.8 0.2 -10.8 -1.2 -1.7 -2.5 -2.2 -5.9 -2.2 l-4.3 0 -0.4 7.6 c-0.2 4.2 -0.1 7.8 0.2 8.1 1.2 1.2 8.6 -0.7 10.2 -2.7z"/>
  <path d="M343.5 384.5 c0 -5.2 0.3 -9.5 0.8 -9.5 0.4 0 0.7 4.3 0.7 9.5 0 5.2 -0.3 9.5 -0.7 9.5 -0.5 0 -0.8 -4.3 -0.8 -9.5z"/>
  <path d="M352.1 391.4 c-3.1 -3.9 -2.9 -10.7 0.4 -13.9 2.8 -2.9 8.1 -3.3 11.1 -0.9 1.8 1.5 1.8 1.5 -0.3 0.5 -8.6 -4.2 -16.2 5.7 -10.2 13.3 2.4 3 7.2 3.5 10.7 1 2.6 -1.8 3 -0.7 0.5 1.2 -1 0.7 -3.7 1.4 -6 1.4 -3.3 0 -4.6 -0.5 -6.2 -2.6z"/>
  <path d="M374.2 393.3 c-3.4 -1.4 -5.2 -9.5 -3 -13.6 2.9 -5.5 10.2 -6.5 14.3 -2.1 3.5 3.8 3.5 10.5 0 13.9 -2.3 2.4 -7.7 3.3 -11.3 1.8z m10.3 -2.8 c2.8 -2.7 3.2 -6.3 1 -10.4 -3.3 -6.5 -12.3 -4.9 -14.1 2.4 -0.7 3 1.2 8.1 3.5 9.5 2.9 1.7 7.1 1.1 9.6 -1.5z"/>
  <path d="M136.4 352.1 c-5.8 -2.5 -7.4 -11.9 -2.8 -16.5 1.5 -1.4 3.1 -2.6 3.7 -2.6 0.6 0 0.3 -0.8 -0.5 -1.7 -2.4 -2.8 -2.8 -5 -1.7 -8.3 1.3 -3.6 3.6 -5 8.2 -5 6.6 0 10.3 8.6 5.8 13.4 -1.9 2.1 -1.9 2.1 0.6 5.1 1.7 2 2.8 2.5 3.1 1.7 0.6 -1.8 5.2 -7.2 6.2 -7.2 1.4 0 0.5 3.5 -1.3 4.8 -0.9 0.7 -2.4 2.7 -3.3 4.3 -1.4 2.8 -1.4 3.3 0.1 5.6 1 1.4 2.6 2.8 3.6 3 1 0.3 1.9 1.2 1.9 1.9 0 2.3 -3.9 1.6 -6.5 -1.2 l-2.4 -2.6 -2.3 2.7 c-2.5 2.9 -8.7 4.2 -12.4 2.6z m8.7 -2.1 c1 -0.6 2.6 -2.4 3.5 -4.1 1.3 -2.6 1.3 -3.6 0.3 -6 -4.1 -10 -17.5 -6 -15.5 4.7 1.1 5.4 6.7 8 11.7 5.4z m2.1 -19.7 c4 -3.6 0.9 -10.3 -4.7 -10.3 -3.7 0 -5.5 2 -5.5 6.1 0 5.1 6.3 7.7 10.2 4.2z"/>
  <path d="M229 352.4 c-0.8 -0.3 -3.6 -1.5 -6.2 -2.6 -4.3 -1.9 -4.6 -2.2 -3.6 -4.4 1.1 -2.3 1.2 -2.3 2.5 -0.5 0.7 1.1 3.3 2.7 5.8 3.6 7.7 3 16.7 0.4 18.1 -5.1 1.1 -4.4 -1.9 -6.3 -11.7 -7.2 -10.4 -1.1 -12.5 -2.2 -14 -7 -1.5 -5.1 0.7 -10.4 5.3 -12.8 4.5 -2.4 13.1 -2.3 18.5 0.2 3.8 1.8 4 2.1 3.1 4.4 -0.6 1.5 -1.2 2 -1.5 1.2 -1.6 -4.3 -15 -5.8 -19.7 -2.1 -2.9 2.3 -3.6 7.8 -1.3 9.7 0.7 0.6 5.5 1.5 10.7 2 8.4 0.9 9.7 1.3 11.7 3.6 4.4 5.1 2.4 12.4 -4.2 15.6 -3.8 1.9 -10 2.5 -13.5 1.4z"/>
  <path d="M264.2 350.9 c-5.3 -2.7 -8 -6.4 -9.4 -13.1 -3 -14.8 9 -26.4 23.6 -22.7 11.1 2.8 16.9 16.2 11.7 27.4 -2.2 4.8 -4.4 6.9 -9.4 9 -5.1 2.1 -11.4 1.9 -16.5 -0.6z m15.8 -2.8 c1.9 -1 4.6 -3.3 5.8 -5.2 2.1 -2.9 2.3 -4.3 2 -10.3 -0.4 -6.5 -0.6 -7 -4.6 -10.7 -3.8 -3.6 -4.5 -3.9 -10.1 -3.9 -5 0 -6.5 0.4 -9.1 2.6 -4.2 3.6 -6 7.4 -6 13.1 0 12.2 11.8 19.9 22 14.4z"/>
  <path d="M308 350.8 c-6.2 -3.1 -9.4 -9 -9.4 -17.3 0.1 -6.8 1.8 -11 6.4 -14.9 6.2 -5.1 14.4 -5.6 22.7 -1.3 4 2.1 4.1 2.3 2.8 4.7 -0.8 1.4 -1.4 1.9 -1.5 1.2 0 -2.5 -6.3 -5.2 -12.2 -5.2 -4.6 0 -6.2 0.5 -8.8 2.6 -4.2 3.6 -6 7.4 -6 13 0 8.4 7 16.4 14.4 16.4 3.6 0 9.1 -2.4 12 -5.3 2.3 -2.3 2.4 -2.3 3.5 -0.4 0.7 1 1.1 2 0.9 2 -0.2 0.1 -1.2 0.8 -2.3 1.5 -8.9 5.6 -15.5 6.5 -22.5 3z"/>
  <path d="M440.5 351.1 c-4.8 -2.2 -6.9 -4.4 -9 -9.4 -3.3 -7.9 -0.7 -19.3 5.5 -23.7 7.2 -5.2 17.9 -4.7 24.5 1.1 4 3.6 5.8 8.3 5.7 15.6 -0.1 13.9 -13.8 22.3 -26.7 16.4z m15 -3.1 c10.5 -5.1 11.5 -21.1 1.6 -27.7 -4.2 -2.9 -11.9 -3.1 -16.3 -0.5 -5.7 3.3 -8.7 11.1 -6.9 18 2.8 10.4 12.1 14.8 21.6 10.2z"/>
  <path d="M484 352.1 c-2.2 -0.7 -8.9 -3.9 -9.8 -4.6 -0.2 -0.2 0.2 -1.3 0.8 -2.6 1.1 -2 1.3 -2.1 2.2 -0.5 1.3 2.4 8.5 5.6 12.6 5.6 4.7 0 10 -2.5 11.3 -5.4 2.5 -5.3 -2.6 -8.6 -13.2 -8.6 -10.3 0 -15.6 -6.9 -11.4 -15 3.2 -6.1 13.5 -8.3 22.7 -4.7 4.5 1.8 4.7 1.9 3.5 4.4 -0.6 1.4 -1.3 2 -1.5 1.4 -0.7 -2.2 -6.2 -4.1 -11.7 -4.1 -4.9 0 -6 0.4 -8.6 2.9 -3.3 3.4 -3.6 5.1 -1.1 8 1.4 1.7 3.5 2.2 11.1 3 7.4 0.7 9.7 1.3 11.5 3 2.8 2.9 2.9 10 0.1 13.1 -3.9 4.4 -11.8 6.1 -18.5 4.1z"/>
  <path d="M16.8 330.9 c0.2 -14.9 -0.1 -21.5 -0.9 -22.5 -0.9 -1.2 -0.4 -1.4 3.2 -1.4 2.7 0 3.9 0.4 3.1 0.8 -0.9 0.6 -1.2 3.7 -1 11.5 l0.3 10.5 11 -9.9 c6.2 -5.6 10.9 -10.6 10.7 -11.4 -0.2 -1.2 0.8 -1.5 4.4 -1.5 l4.7 0 -3.7 2.9 c-1.9 1.6 -6.3 5.4 -9.7 8.5 l-6.1 5.6 8.3 12.3 c4.5 6.7 8.9 13 9.7 14 1.4 1.6 1.3 1.7 -2 1.7 -2.2 0 -3.5 -0.5 -3.5 -1.3 0 -0.9 -12.3 -20.5 -14.9 -23.6 -0.1 -0.1 -2.4 1.4 -4.9 3.5 l-4.6 3.9 0.3 8.8 c0.3 8.7 0.3 8.7 -2.2 8.7 l-2.5 0 0.3 -21.1z"/>
  <path d="M59 350.1 c0.5 -1.1 1 -8.4 1 -16.6 0 -8.2 -0.5 -15.5 -1 -16.6 -1 -1.7 -0.7 -1.9 2.7 -1.9 2.4 0 3.3 0.3 2.5 0.9 -1 0.6 -1.2 4.8 -1 18.4 l0.3 17.7 -2.8 0 c-2.4 0 -2.6 -0.2 -1.7 -1.9z"/>
  <path d="M73.8 334.9 c0.2 -12 -0.1 -17.5 -0.9 -18.5 -1 -1.2 -0.4 -1.4 3.4 -1.4 3.7 0 4.5 0.3 4.1 1.5 -0.6 1.5 9.4 26.5 10.6 26.5 1.2 0 11.2 -25 10.6 -26.5 -0.4 -1.2 0.4 -1.5 4.1 -1.5 3.8 0 4.4 0.2 3.4 1.4 -0.8 1 -1.1 6.5 -0.9 18.5 l0.3 17.1 -3 0 c-2.2 0 -2.6 -0.3 -1.7 -1.2 1.4 -1.4 1.8 -30.3 0.4 -29.4 -0.5 0.3 -3.5 6.7 -6.7 14.3 -3.2 7.6 -6.1 14.2 -6.5 14.6 -0.4 0.4 -3.5 -5.9 -6.9 -14 -3.5 -8.1 -6.5 -15 -6.8 -15.3 -0.2 -0.2 -0.3 6.6 -0.1 15.3 0.3 15.1 0.2 15.7 -1.7 15.7 -1.9 0 -2 -0.6 -1.7 -17.1z"/>
  <path d="M173.8 351.2 c1.7 -1.1 17.4 -41.2 16.8 -42.9 -0.4 -0.9 0.5 -1.3 3.4 -1.3 2.9 0 3.8 0.4 3.4 1.3 -0.6 1.8 15.3 42.4 16.9 43.1 0.7 0.2 -0.7 0.5 -3 0.5 -3.6 0.1 -4 -0.1 -3.6 -1.8 0.3 -1 -0.4 -4 -1.6 -6.5 l-2 -4.6 -10.4 0 -10.5 0 -2.2 5.4 c-1.2 3 -1.9 6 -1.5 6.5 0.4 0.7 -0.8 1.1 -3.2 1.1 -2.3 0 -3.3 -0.4 -2.5 -0.8z m25 -26.4 c-2.2 -5.7 -4.3 -10.7 -4.7 -11.1 -0.4 -0.4 -2.4 3.4 -4.3 8.5 -2 5.1 -3.9 10.1 -4.3 11.1 -0.6 1.5 0.1 1.7 8.3 1.7 l9 0 -4 -10.2z"/>
  <path d="M340.8 350.8 c1.7 -1.7 1.7 -32.9 0 -34.6 -0.9 -0.9 -0.4 -1.2 2.6 -1.2 3.2 0 3.6 0.2 2.7 1.4 -0.8 1 -1.1 6.5 -0.9 18.5 l0.3 17.1 -2.9 0 c-2.3 0 -2.7 -0.3 -1.8 -1.2z"/>
  <path d="M353.4 349.3 c0.7 -1.6 4 -9.5 7.2 -17.6 4.8 -12.3 5.5 -15 4.3 -15.8 -0.9 -0.6 0.2 -0.9 3.5 -0.9 3.7 0 4.6 0.3 3.8 1.3 -0.7 0.8 0.8 5.8 5.2 16.8 3.3 8.6 6.7 16.4 7.5 17.3 1.2 1.4 1 1.6 -2.2 1.6 -2.7 0 -3.5 -0.4 -3.1 -1.4 0.3 -0.7 -0.2 -3 -1 -5 l-1.5 -3.6 -9 0 -8.9 0 -1.2 3.5 c-0.7 2 -0.9 4.2 -0.6 5 0.4 1.1 -0.2 1.5 -2.5 1.5 -2.9 0 -2.9 0 -1.5 -2.7z m21.6 -11.7 c0 -2.6 -6.3 -17.7 -7 -16.9 -0.7 0.7 -7 17 -7 17.9 0 0.2 3.2 0.4 7 0.4 5.4 0 7 -0.3 7 -1.4z"/>
  <path d="M391.8 334.4 c0.2 -13.7 0 -17.9 -1 -18.5 -0.7 -0.5 3.6 -0.9 9.7 -0.9 8.5 0 11.8 0.4 14.5 1.8 9.6 4.8 11.5 22.3 3.5 31.1 l-3.3 3.6 -11.9 0.3 -11.8 0.4 0.3 -17.8z m22.1 13.1 c5.3 -2.7 7.8 -14.4 4.7 -21.8 -2.4 -5.8 -4.8 -7 -14.1 -7.5 l-8.5 -0.5 0 15.7 0 15.6 7.5 0 c4.7 0 8.7 -0.6 10.4 -1.5z"/>
  <path d="M181.6 273.6 c2.2 -0.8 5.4 -2.1 7 -2.9 4.1 -2.1 13.1 -11.3 16.5 -16.7 3.4 -5.3 4 -2.9 0.9 3.7 -4.8 10.8 -12.1 16.3 -22.4 16.9 l-6.1 0.4 4.1 -1.4z"/>
  <path d="M310.8 274 c-6.9 -2.1 -15.2 -10.6 -17.3 -17.7 -0.3 -1.3 -1.1 -2.3 -1.6 -2.3 -0.5 0 -0.9 -1.1 -0.9 -2.5 0 -3.4 1.2 -3.1 2.9 0.8 0.8 1.7 4.9 6.6 9 10.8 5.6 5.5 9 8.1 13.1 9.6 l5.5 2.2 -4 -0.1 c-2.2 0 -5.2 -0.3 -6.7 -0.8z"/>
  <path d="M225 261.8 c0 -6.8 -0.5 -14.3 -1 -16.6 -1.3 -5.3 -9.2 -22 -13.2 -27.9 -1.6 -2.4 -2.7 -4.3 -2.4 -4.3 0.7 0 13.6 17.9 13.6 18.9 0 0.5 0.7 1.4 1.5 2.1 1.3 1.1 1.5 -0.5 1.5 -13.4 0 -13.9 0.1 -14.6 2 -14.6 2 0 2 0.7 2 34 0 33.3 0 34 -2 34 -1.9 0 -2 -0.7 -2 -12.2z"/>
  <path d="M271.7 273.3 c-0.4 -0.3 -0.7 -15.6 -0.7 -34 0 -32.6 0 -33.3 2 -33.3 1.9 0 2 0.7 2 14 0 14 0.9 17.1 3.1 11.3 1.3 -3.4 7.5 -13 9.1 -13.9 0.6 -0.4 -0.2 1.7 -1.9 4.7 -7.6 13.3 -10.3 24 -10.3 40.4 0 8.9 -0.3 11.5 -1.3 11.5 -0.8 0 -1.7 -0.3 -2 -0.7z"/>
  <path d="M248.8 242.5 c-0.5 -10.4 -0.8 -25.4 -0.8 -33.2 0 -12.1 0.2 -14.3 1.5 -14.3 1.3 0 1.5 2.8 1.4 19.3 -0.1 10.5 -0.4 25.5 -0.8 33.2 l-0.6 14 -0.7 -19z"/>
 </g>
 <g fill="none" stroke="#ffffff" stroke-width="1">
  <path d="M0 246 l0 -246 253.5 0 253.5 0 0 246 0 246 -253.5 0 -253.5 0 0 -246z m146 147.1 c0 -0.5 -3 -0.8 -6.7 -0.7 l-6.8 0.1 -0.3 -4.7 -0.3 -4.8 4.5 0 c2.6 0 4.6 -0.4 4.6 -1 0 -0.5 -2 -1 -4.5 -1 l-4.5 0 0 -4 0 -4 7 0 c9.7 0 8.8 -1.6 -1 -1.9 l-8 -0.2 0 11.6 0 11.5 8 0 c4.4 0 8 -0.4 8 -0.9z m17.5 -1.5 c2.7 -4 0.3 -7.6 -5.2 -7.6 -4.6 0 -6.3 -0.9 -6.3 -3.5 0 -4.3 3.9 -5.4 10.5 -3.1 2 0.8 2 0.7 0.1 -0.8 -2.8 -2.2 -8.2 -2 -10.6 0.4 -3.9 3.9 -2 7.1 5.2 8.5 3.8 0.7 5.4 1.5 5.6 2.8 0.8 4.3 -6 6.4 -10.6 3.1 -1.2 -0.8 -2.2 -1.1 -2.2 -0.5 0 1.7 3.3 3 7.7 3.1 3.4 0 4.6 -0.5 5.8 -2.4z m11.7 -6.1 l-0.3 -8.5 3.5 0 c2 0 3.6 -0.4 3.6 -1 0 -0.6 -3.2 -1 -7.5 -1 -4.3 0 -7.5 0.4 -7.5 1 0 0.6 1.6 1 3.6 1 l3.5 0 -0.3 8.5 c-0.2 5.2 0.1 8.5 0.7 8.5 0.6 0 0.9 -3.3 0.7 -8.5z m22.6 7.3 c0.8 -0.8 1.1 -4.2 1 -9.7 l-0.2 -8.6 -0.3 8 c-0.2 4.3 -0.9 8.5 -1.5 9.2 -1.3 1.6 -7 1.7 -8.6 0.1 -0.7 -0.7 -1.2 -4.3 -1.2 -9 0 -4.3 -0.3 -7.8 -0.8 -7.8 -1.1 0 -0.2 16.3 1 17.8 1.3 1.5 9 1.6 10.6 0z m17 0.6 c2.6 -0.7 5.2 -5.1 5.2 -8.8 0 -6.2 -4.1 -9.6 -11.6 -9.6 l-3.3 0 -0.3 9.5 -0.3 9.5 4 0 c2.2 0 5 -0.3 6.3 -0.6z m11.2 -8.9 c0 -5.2 -0.3 -9.5 -0.7 -9.5 -0.5 0 -0.8 4.3 -0.8 9.5 0 5.2 0.3 9.5 0.8 9.5 0.4 0 0.7 -4.3 0.7 -9.5z m20.3 7.7 c2.7 -3 3.7 -6.7 2.6 -10.6 -1.8 -6.7 -9.2 -8.8 -14.6 -4.2 -3.8 3.3 -4 10.2 -0.4 14 3 3.2 9.8 3.7 12.4 0.8z m23.7 0.8 c1.1 -0.7 1.6 -3.6 2 -11.5 0.3 -5.8 0.2 -10.5 -0.2 -10.5 -0.5 0 -0.8 4.1 -0.8 9.1 0 5 -0.5 9.9 -1 11 -1.2 2.1 -5 2.5 -8.1 0.9 -1.1 -0.7 -1.9 -0.7 -1.9 -0.1 0 2 7.3 2.8 10 1.1z m20.4 -0.6 c1.2 -1.2 1.6 -3.4 1.4 -9.7 l-0.2 -8.2 -0.3 8 c-0.2 4.3 -0.9 8.5 -1.5 9.2 -0.6 0.7 -2.8 1.3 -4.9 1.3 -3.4 0 -4.1 -0.4 -5 -2.7 -0.6 -1.6 -0.9 -5.6 -0.7 -9 0.2 -3.5 0 -6.3 -0.4 -6.3 -0.4 0 -0.8 3.6 -0.8 7.9 0 9.3 1.1 11.1 7 11.1 2.2 0 4.5 -0.7 5.4 -1.6z m8.6 -3 c0 -4.5 0 -4.5 3.1 -4.2 2.5 0.2 3.6 1.1 5.3 4.3 1.1 2.2 2.2 4.2 2.4 4.4 0.1 0.2 0.4 0.2 0.7 -0.1 0.3 -0.3 -0.4 -2.2 -1.6 -4.2 l-2.2 -3.7 2.2 -1.5 c1.3 -1 2.1 -2.6 2.1 -4.5 0 -3.5 -2.7 -4.9 -9.3 -4.9 l-4.2 0 0 9.5 c0 5.2 0.3 9.5 0.8 9.5 0.4 0 0.7 -2.1 0.7 -4.6z m18.5 -4.9 c0 -5.2 -0.3 -9.5 -0.7 -9.5 -0.5 0 -0.8 4.3 -0.8 9.5 0 5.2 0.3 9.5 0.8 9.5 0.4 0 0.7 -4.3 0.7 -9.5z m18 7 c1.9 -1.8 2.5 -3.5 2.5 -6.8 0 -6.6 -2.3 -8.9 -9.3 -9.5 l-5.7 -0.4 0 9.6 0 9.6 5 0 c4.1 0 5.6 -0.5 7.5 -2.5z m9.5 -7 c0 -5.2 -0.3 -9.5 -0.7 -9.5 -0.5 0 -0.8 4.3 -0.8 9.5 0 5.2 0.3 9.5 0.8 9.5 0.4 0 0.7 -4.3 0.7 -9.5z m19.3 8.1 c2.5 -1.9 2.1 -3 -0.5 -1.2 -3.5 2.5 -8.3 2 -10.7 -1 -6 -7.6 1.6 -17.5 10.2 -13.3 2.1 1 2.1 1 0.3 -0.5 -3 -2.4 -8.3 -2 -11.1 0.9 -3.3 3.2 -3.5 10 -0.4 13.9 1.6 2.1 2.9 2.6 6.2 2.6 2.3 0 5 -0.7 6 -1.4z m21.2 -1.1 c3.5 -3.4 3.5 -10.1 0 -13.9 -4.1 -4.4 -11.4 -3.4 -14.3 2.1 -2.2 4.1 -0.4 12.2 3 13.6 3.6 1.5 9 0.6 11.3 -1.8z m-236.7 -42 l2.3 -2.7 2.4 2.6 c2.6 2.8 6.5 3.5 6.5 1.2 0 -0.7 -0.9 -1.6 -1.9 -1.9 -1 -0.2 -2.6 -1.6 -3.6 -3 -1.5 -2.3 -1.5 -2.8 -0.1 -5.6 0.9 -1.6 2.4 -3.6 3.3 -4.3 1.8 -1.3 2.7 -4.8 1.3 -4.8 -1 0 -5.6 5.4 -6.2 7.2 -0.3 0.8 -1.4 0.3 -3.1 -1.7 -2.5 -3 -2.5 -3 -0.6 -5.1 4.5 -4.8 0.8 -13.4 -5.8 -13.4 -4.6 0 -6.9 1.4 -8.2 5 -1.1 3.3 -0.7 5.5 1.7 8.3 0.8 0.9 1.1 1.7 0.5 1.7 -0.6 0 -2.2 1.2 -3.7 2.6 -4.6 4.6 -3 14 2.8 16.5 3.7 1.6 9.9 0.3 12.4 -2.6z m93.7 1.5 c6.6 -3.2 8.6 -10.5 4.2 -15.6 -2 -2.3 -3.3 -2.7 -11.7 -3.6 -5.2 -0.5 -10 -1.4 -10.7 -2 -2.3 -1.9 -1.6 -7.4 1.3 -9.7 4.7 -3.7 18.1 -2.2 19.7 2.1 0.3 0.8 0.9 0.3 1.5 -1.2 0.9 -2.3 0.7 -2.6 -3.1 -4.4 -5.4 -2.5 -14 -2.6 -18.5 -0.2 -4.6 2.4 -6.8 7.7 -5.3 12.8 1.5 4.8 3.6 5.9 14 7 9.8 0.9 12.8 2.8 11.7 7.2 -1.4 5.5 -10.4 8.1 -18.1 5.1 -2.5 -0.9 -5.1 -2.5 -5.8 -3.6 -1.3 -1.8 -1.4 -1.8 -2.5 0.5 -1 2.2 -0.7 2.5 3.6 4.4 2.6 1.1 5.4 2.3 6.2 2.6 3.5 1.1 9.7 0.5 13.5 -1.4z m38.2 0.5 c5 -2.1 7.2 -4.2 9.4 -9 5.2 -11.2 -0.6 -24.6 -11.7 -27.4 -14.6 -3.7 -26.6 7.9 -23.6 22.7 1.4 6.7 4.1 10.4 9.4 13.1 5.1 2.5 11.4 2.7 16.5 0.6z m43.8 -0.5 c2.2 -1.1 4.9 -2.5 6 -3.2 1.1 -0.7 2.1 -1.4 2.3 -1.5 0.2 0 -0.2 -1 -0.9 -2 -1.1 -1.9 -1.2 -1.9 -3.5 0.4 -2.9 2.9 -8.4 5.3 -12 5.3 -7.4 0 -14.4 -8 -14.4 -16.4 0 -5.6 1.8 -9.4 6 -13 2.6 -2.1 4.2 -2.6 8.8 -2.6 5.9 0 12.2 2.7 12.2 5.2 0.1 0.7 0.7 0.2 1.5 -1.2 1.3 -2.4 1.2 -2.6 -2.8 -4.7 -8.3 -4.3 -16.5 -3.8 -22.7 1.3 -4.6 3.9 -6.3 8.1 -6.4 14.9 0 14.9 13.2 23.7 25.9 17.5z m133.2 -0.1 c11 -5.3 13.1 -23.6 3.8 -31.8 -6.6 -5.8 -17.3 -6.3 -24.5 -1.1 -8.1 5.7 -9.2 21.4 -2.2 29.4 4.8 5.4 15.5 7.1 22.9 3.5z m39.6 0.7 c5 -2.1 7.2 -5.2 7.2 -10.2 0 -6.8 -2.3 -8.4 -13.6 -9.5 -7.6 -0.8 -9.7 -1.3 -11.1 -3 -2.5 -2.9 -2.2 -4.6 1.1 -8 2.6 -2.5 3.7 -2.9 8.6 -2.9 5.5 0 11 1.9 11.7 4.1 0.2 0.6 0.9 0 1.5 -1.4 1.2 -2.5 1 -2.6 -3.5 -4.4 -9.2 -3.6 -19.5 -1.4 -22.7 4.7 -4.2 8.1 1.1 15 11.4 15 10.6 0 15.7 3.3 13.2 8.6 -1.3 2.9 -6.6 5.4 -11.3 5.4 -4.1 0 -11.3 -3.2 -12.6 -5.6 -0.9 -1.6 -1.1 -1.5 -2.2 0.5 -1.3 2.6 -1.5 2.3 3 4.6 7.2 3.7 13.9 4.4 19.3 2.1z m-476.1 -8.3 l-0.3 -8.8 4.6 -3.9 c2.5 -2.1 4.8 -3.6 4.9 -3.5 2.6 3.1 14.9 22.7 14.9 23.6 0 0.8 1.3 1.3 3.5 1.3 3.3 0 3.4 -0.1 2 -1.7 -0.8 -1 -5.2 -7.3 -9.7 -14 l-8.3 -12.3 6.1 -5.6 c3.4 -3.1 7.8 -6.9 9.7 -8.5 l3.7 -2.9 -4.7 0 c-3.6 0 -4.6 0.3 -4.4 1.5 0.2 0.8 -4.5 5.8 -10.7 11.4 l-11 9.9 -0.3 -10.5 c-0.2 -7.8 0.1 -10.9 1 -11.5 0.8 -0.4 -0.4 -0.8 -3.1 -0.8 -3.6 0 -4.1 0.2 -3.2 1.4 0.8 1 1.1 7.6 0.9 22.5 l-0.3 21.1 2.5 0 c2.5 0 2.5 0 2.2 -8.7z m42 -9 c-0.2 -13.6 0 -17.8 1 -18.4 0.8 -0.6 -0.1 -0.9 -2.5 -0.9 -3.4 0 -3.7 0.2 -2.7 1.9 0.5 1.1 1 8.4 1 16.6 0 8.2 -0.5 15.5 -1 16.6 -0.9 1.7 -0.7 1.9 1.7 1.9 l2.8 0 -0.3 -17.7z m14 2 c-0.2 -8.7 -0.1 -15.5 0.1 -15.3 0.3 0.3 3.3 7.2 6.8 15.3 3.4 8.1 6.5 14.4 6.9 14 0.4 -0.4 3.3 -7 6.5 -14.6 3.2 -7.6 6.2 -14 6.7 -14.3 1.4 -0.9 1 28 -0.4 29.4 -0.9 0.9 -0.5 1.2 1.7 1.2 l3 0 -0.3 -17.1 c-0.2 -12 0.1 -17.5 0.9 -18.5 1 -1.2 0.4 -1.4 -3.4 -1.4 -3.7 0 -4.5 0.3 -4.1 1.5 0.6 1.5 -9.4 26.5 -10.6 26.5 -1.2 0 -11.2 -25 -10.6 -26.5 0.4 -1.2 -0.4 -1.5 -4.1 -1.5 -3.8 0 -4.4 0.2 -3.4 1.4 0.8 1 1.1 6.5 0.9 18.5 -0.3 16.5 -0.2 17.1 1.7 17.1 1.9 0 2 -0.6 1.7 -15.7z m102.3 14.6 c-0.4 -0.5 0.3 -3.5 1.5 -6.5 l2.2 -5.4 10.5 0 10.4 0 2 4.6 c1.2 2.5 1.9 5.5 1.6 6.5 -0.4 1.7 0 1.9 3.6 1.8 2.3 0 3.7 -0.3 3 -0.5 -1.6 -0.7 -17.5 -41.3 -16.9 -43.1 0.4 -0.9 -0.5 -1.3 -3.4 -1.3 -2.9 0 -3.8 0.4 -3.4 1.3 0.6 1.7 -15.1 41.8 -16.8 42.9 -0.8 0.4 0.2 0.8 2.5 0.8 2.4 0 3.6 -0.4 3.2 -1.1z m165.7 -16 c-0.2 -12 0.1 -17.5 0.9 -18.5 0.9 -1.2 0.5 -1.4 -2.7 -1.4 -3 0 -3.5 0.3 -2.6 1.2 1.7 1.7 1.7 32.9 0 34.6 -0.9 0.9 -0.5 1.2 1.8 1.2 l2.9 0 -0.3 -17.1z m12.2 15.6 c-0.3 -0.8 -0.1 -3 0.6 -5 l1.2 -3.5 8.9 0 9 0 1.5 3.6 c0.8 2 1.3 4.3 1 5 -0.4 1 0.4 1.4 3.1 1.4 3.2 0 3.4 -0.2 2.2 -1.6 -0.8 -0.9 -4.2 -8.7 -7.5 -17.3 -4.4 -11 -5.9 -16 -5.2 -16.8 0.8 -1 -0.1 -1.3 -3.8 -1.3 -3.3 0 -4.4 0.3 -3.5 0.9 1.2 0.8 0.5 3.5 -4.3 15.8 -3.2 8.1 -6.5 16 -7.2 17.6 -1.4 2.7 -1.4 2.7 1.5 2.7 2.3 0 2.9 -0.4 2.5 -1.5z m61.1 -2.6 c8 -8.8 6.1 -26.3 -3.5 -31.1 -2.7 -1.4 -6 -1.8 -14.5 -1.8 -6.1 0 -10.4 0.4 -9.7 0.9 1 0.6 1.2 4.8 1 18.5 l-0.3 17.8 11.8 -0.4 11.9 -0.3 3.3 -3.6z m-224.9 -75.7 c4.5 -2.3 9.6 -8.3 12.4 -14.5 3.1 -6.6 2.5 -9 -0.9 -3.7 -3.4 5.4 -12.4 14.6 -16.5 16.7 -1.6 0.8 -4.8 2.1 -7 2.9 l-4.1 1.4 6.1 -0.4 c3.4 -0.2 7.8 -1.3 10 -2.4z m122.4 0.5 c-4.1 -1.5 -7.5 -4.1 -13.1 -9.6 -4.1 -4.2 -8.2 -9.1 -9 -10.8 -1.7 -3.9 -2.9 -4.2 -2.9 -0.8 0 1.4 0.4 2.5 0.9 2.5 0.5 0 1.3 1 1.6 2.3 0.4 1.2 2.3 4.6 4.2 7.4 5.1 7.6 11.4 11.1 19.8 11.1 l4 0.1 -5.5 -2.2z m-87 -32.7 c0 -33.3 0 -34 -2 -34 -1.9 0 -2 0.7 -2 14.6 0 12.9 -0.2 14.5 -1.5 13.4 -0.8 -0.7 -1.5 -1.6 -1.5 -2.1 0 -1 -12.9 -18.9 -13.6 -18.9 -0.3 0 0.8 1.9 2.4 4.3 4 5.9 11.9 22.6 13.2 27.9 0.5 2.3 1 9.8 1 16.6 0 11.5 0.1 12.2 2 12.2 2 0 2 -0.7 2 -34z m46 22.5 c0 -16.4 2.7 -27.1 10.3 -40.4 1.7 -3 2.5 -5.1 1.9 -4.7 -1.6 0.9 -7.8 10.5 -9.1 13.9 -2.2 5.8 -3.1 2.7 -3.1 -11.3 0 -13.3 -0.1 -14 -2 -14 -2 0 -2 0.7 -2 33.3 0 18.4 0.3 33.7 0.7 34 0.3 0.4 1.2 0.7 2 0.7 1 0 1.3 -2.6 1.3 -11.5z m-24.1 -48.2 c0.1 -16.5 -0.1 -19.3 -1.4 -19.3 -1.3 0 -1.5 2.2 -1.5 14.3 0 7.8 0.3 22.8 0.8 33.2 l0.7 19 0.6 -14 c0.4 -7.7 0.7 -22.7 0.8 -33.2z"/>
  <path d="M206.8 392.4 c-0.5 -0.4 -0.8 -4 -0.8 -8.1 l0 -7.3 5.1 0 c4.8 0 5.1 0.1 6.5 3.6 1.6 3.8 1.2 8.5 -1 10.3 -1.6 1.3 -8.9 2.5 -9.8 1.5z"/>
  <path d="M235.2 390.7 c-3.1 -3.3 -3 -9.6 0.1 -12.5 7.3 -6.9 16.9 4.2 10.6 12.2 -2.7 3.4 -7.7 3.6 -10.7 0.3z"/>
  <path d="M299 380.5 l0 -3.6 5.3 0.3 c5 0.3 5.2 0.4 5.2 3.3 0 2.9 -0.2 3 -5.2 3.3 l-5.3 0.3 0 -3.6z"/>
  <path d="M325 392.7 c-0.3 -0.3 -0.4 -3.9 -0.2 -8.1 l0.4 -7.6 4.3 0 c5.1 0 7.5 2.4 7.5 7.6 0 4.5 -2.7 7.4 -7.5 8.1 -2.2 0.2 -4.2 0.3 -4.5 0z"/>
  <path d="M374.9 392 c-0.9 -0.5 -2.2 -2.3 -2.9 -4 -3.9 -9.5 8.8 -17 13.5 -7.9 2.2 4.1 1.8 7.7 -1 10.4 -2.5 2.6 -6.7 3.2 -9.6 1.5z"/>
  <path d="M136.3 349.5 c-2.8 -1.9 -3.9 -7.5 -2.2 -10.6 3.6 -6.9 11.8 -6.4 14.8 1 1 2.4 1 3.4 -0.3 6 -2.7 5.1 -8 6.6 -12.3 3.6z"/>
  <path d="M138.7 330.2 c-1.9 -2.1 -2.2 -5.4 -0.7 -8.3 1.5 -2.8 7.4 -2.6 9.4 0.3 0.9 1.2 1.6 3.2 1.6 4.4 0 4.7 -7.1 7.2 -10.3 3.6z"/>
  <path d="M265.6 347.7 c-4.9 -2.8 -7.6 -7.7 -7.6 -14 0 -5.7 1.8 -9.5 6 -13.1 2.6 -2.2 4.1 -2.6 9.1 -2.6 5.6 0 6.3 0.3 10.1 3.9 4 3.7 4.2 4.2 4.6 10.7 0.3 6 0.1 7.4 -2 10.3 -4.7 6.9 -13.1 8.9 -20.2 4.8z"/>
  <path d="M442.4 348.6 c-8.5 -3.7 -11.6 -15.5 -6.4 -24.1 5.8 -9.5 21.2 -8.6 26.2 1.5 6.8 13.4 -6.4 28.4 -19.8 22.6z"/>
  <path d="M185.5 333.3 c0.4 -1 2.3 -6 4.3 -11.1 1.9 -5.1 3.9 -8.9 4.3 -8.5 0.4 0.4 2.5 5.4 4.7 11.1 l4 10.2 -9 0 c-8.2 0 -8.9 -0.2 -8.3 -1.7z"/>
  <path d="M361 338.6 c0 -0.9 6.3 -17.2 7 -17.9 0.7 -0.8 7 14.3 7 16.9 0 1.1 -1.6 1.4 -7 1.4 -3.8 0 -7 -0.2 -7 -0.4z"/>
  <path d="M396 333.4 l0 -15.7 8.5 0.5 c9.3 0.5 11.7 1.7 14.1 7.5 3.1 7.4 0.6 19.1 -4.7 21.8 -1.7 0.9 -5.7 1.5 -10.4 1.5 l-7.5 0 0 -15.6z"/>
 </g>
</svg>